<svg width="243" height="233" viewBox="0 0 243 233" fill="none" xmlns="http://www.w3.org/2000/svg">
<path d="M66.3028 2.18025C66.2487 0.543897 64.77 -0.593232 63.4536 0.331263C44.7169 13.4498 45.9883 66.9781 52.5975 85.995C41.4168 75.4372 32.7789 44.1154 31.0477 32.3743C31.0042 32.0669 30.8901 31.7746 30.7149 31.5213C30.5396 31.2681 30.3081 31.0612 30.0396 30.9176C29.771 30.774 29.473 30.698 29.1701 30.6957C28.8673 30.6934 28.5682 30.7649 28.2976 30.9043C12.284 39.345 25.7909 98.5774 32.6256 111.696C22.9597 100.731 10.661 85.431 8.36172 75.6869C8.28207 75.3335 8.09925 75.0133 7.83765 74.7691C7.57604 74.525 7.24807 74.3684 6.89744 74.3202C6.54681 74.2719 6.19018 74.3345 5.87508 74.4994C5.55999 74.6642 5.30138 74.9237 5.13375 75.2431C-3.60341 91.5974 13.7176 137.397 22.4187 144.922C15.3316 139.884 4.84522 122.975 1.93283 117.123C1.83997 116.959 1.70014 116.828 1.53231 116.748C1.36448 116.668 1.17677 116.643 0.994644 116.677C0.81252 116.71 0.644797 116.8 0.514226 116.934C0.383655 117.069 0.296557 117.241 0.264746 117.428C-2.14271 138.22 11.9143 177.955 40.5783 201.446C88.042 199.292 122.891 162.21 128.752 119.795C66.3209 100.269 67.0422 23.8134 66.3028 2.18025Z" fill="#F8F8F8"/>
<path d="M130.673 75.6885C123.604 76.465 114.109 77.4727 113.325 79.1738C111.233 81.1245 121.62 89.8332 129.717 95.4356C129.068 88.8413 129.39 82.1844 130.673 75.6885Z" fill="#F8F8F8"/>
<path d="M208.819 88.3463C208.484 85.2136 207.559 82.1803 206.098 79.4195C204.637 76.6587 202.667 74.2246 200.302 72.2561C197.937 70.2876 195.222 68.8233 192.313 67.9467C189.404 67.0702 186.358 66.7986 183.348 67.1475C182.558 67.2344 181.774 67.3665 180.998 67.5433C177.989 68.2279 175.144 69.5363 172.632 71.3904C175.47 70.6943 177.588 70.758 180.396 71.5757C183.204 72.3933 185.767 73.9382 187.846 76.0661C189.925 78.194 191.453 80.8355 192.285 83.744C193.118 86.6525 193.229 89.7332 192.608 92.6984C191.987 95.6636 190.654 98.4167 188.734 100.701C186.813 102.985 184.368 104.725 181.627 105.759C178.886 106.793 175.937 106.212 173.057 105.739C170.177 105.266 168.551 104.401 166 103.054C168.658 107.816 172.808 111.482 177.755 113.437C182.701 115.392 188.143 115.517 193.168 113.79C198.193 112.064 202.494 108.592 205.351 103.956C208.207 99.3207 209.445 93.8035 208.857 88.3304L208.819 88.3463Z" fill="#F8F8F8"/>
<path fill-rule="evenodd" clip-rule="evenodd" d="M134.478 90.3327C139.14 138.6 115.678 199.256 45.4385 205.663C154.63 284.087 265.788 179.222 237.755 74.6811C229.712 42.25 213.78 32.5428 187.487 30.6938C159.725 30.6938 133.631 51.6336 134.478 90.3327ZM185.5 118C200.688 118 213 105.688 213 90.5C213 75.3122 200.688 63 185.5 63C170.312 63 158 75.3122 158 90.5C158 105.688 170.312 118 185.5 118Z" fill="#F8F8F8"/>
</svg>
